<?xml version="1.0" standalone="no"?>
<!DOCTYPE svg PUBLIC "-//W3C//DTD SVG 20010904//EN"
 "http://www.w3.org/TR/2001/REC-SVG-20010904/DTD/svg10.dtd">
<svg version="1.0" xmlns="http://www.w3.org/2000/svg"
 width="152.000000pt" height="230.000000pt" viewBox="0 0 152.000000 230.000000"
 preserveAspectRatio="xMidYMid meet">

<g transform="translate(0.000000,230.000000) scale(0.100000,-0.100000)"
fill="#000000" stroke="none">
<path d="M9 2293 c-2 -4 -3 -520 -1 -1146 l3 -1137 749 0 750 0 1 1028 c0
1231 0 1245 -11 1252 -14 9 -1488 12 -1491 3z m1281 -40 c1 -27 1 -27 15 -9 8
10 12 23 9 27 -3 5 4 9 16 9 18 0 21 -4 15 -28 -6 -29 14 -80 39 -101 8 -7 19
-25 26 -41 18 -43 30 -37 30 14 0 48 18 74 38 54 9 -9 12 -9 12 -1 0 6 -4 13
-10 15 -6 2 -4 21 5 48 l14 45 0 -71 c1 -60 -2 -73 -16 -79 -17 -6 -17 -7 0
-19 23 -18 22 -31 -9 -72 -30 -38 -25 -57 6 -29 l20 18 0 -1006 0 -1007 -740
0 -740 0 0 1080 0 1080 35 0 c30 0 35 -3 35 -24 0 -40 11 -56 54 -78 31 -16
59 -22 113 -22 50 0 74 -4 77 -13 4 -9 12 -10 31 -3 15 6 27 10 29 10 1 0 2
-15 2 -32 0 -18 4 -45 8 -60 7 -24 4 -29 -20 -40 -16 -7 -44 -28 -62 -46 -28
-27 -32 -38 -30 -74 2 -38 5 -42 46 -60 39 -18 48 -18 70 -7 39 21 68 51 77
79 4 14 16 34 26 45 23 26 16 58 -17 75 -13 7 -21 17 -18 21 3 5 0 18 -6 29
-9 16 -8 19 6 13 13 -5 15 -2 10 14 -8 24 2 29 74 39 28 4 53 11 56 16 3 5 21
6 39 2 28 -5 35 -2 45 16 8 15 15 19 19 11 5 -8 13 -5 26 9 14 15 21 17 32 9
9 -9 17 -8 27 0 10 8 16 9 21 1 9 -15 25 -2 25 21 0 10 6 19 14 19 7 0 19 7
26 15 9 10 17 12 30 5 9 -5 20 -6 24 -3 4 4 16 8 28 10 12 2 42 17 66 33 25
17 54 30 65 30 11 0 17 3 14 7 -4 3 -2 12 4 20 8 9 37 13 90 13 l79 0 0 -27z
m-523 -105 c-3 -8 -6 -5 -6 6 -1 11 2 17 5 13 3 -3 4 -12 1 -19z"/>
<path d="M972 2014 c-7 -8 -10 -19 -6 -26 5 -7 11 -5 21 7 23 33 11 49 -15 19z"/>
<path d="M1045 1981 c-6 -11 9 -23 19 -14 9 9 7 23 -3 23 -6 0 -12 -4 -16 -9z"/>
<path d="M1325 1790 c-8 -16 -15 -36 -15 -45 0 -25 17 -17 28 13 5 15 13 35
17 45 12 29 -13 19 -30 -13z"/>
<path d="M631 1626 c-11 -14 -5 -46 9 -46 15 0 32 30 26 45 -7 19 -20 19 -35
1z"/>
<path d="M560 1620 c0 -5 5 -10 10 -10 6 0 10 5 10 10 0 6 -4 10 -10 10 -5 0
-10 -4 -10 -10z"/>
<path d="M670 1580 c0 -5 7 -10 15 -10 8 0 15 5 15 10 0 6 -7 10 -15 10 -8 0
-15 -4 -15 -10z"/>
<path d="M576 1572 c-8 -13 0 -47 10 -45 11 3 14 42 3 48 -4 3 -10 2 -13 -3z"/>
<path d="M610 1550 c0 -5 5 -10 10 -10 6 0 10 5 10 10 0 6 -4 10 -10 10 -5 0
-10 -4 -10 -10z"/>
<path d="M866 1542 c-4 -4 -13 -7 -19 -7 -7 0 -12 -4 -12 -10 0 -12 35 -9 48
4 5 5 5 11 -1 15 -5 3 -12 2 -16 -2z"/>
<path d="M357 1524 c-3 -3 4 -25 15 -47 27 -53 25 -50 37 -42 7 4 4 19 -9 45
-21 40 -33 53 -43 44z"/>
<path d="M595 1519 c-10 -15 3 -25 16 -12 7 7 7 13 1 17 -6 3 -14 1 -17 -5z"/>
<path d="M655 1519 c-10 -15 3 -25 16 -12 7 7 7 13 1 17 -6 3 -14 1 -17 -5z"/>
<path d="M866 1495 c-9 -13 -16 -27 -16 -30 0 -11 21 0 22 10 1 6 8 15 16 21
10 7 11 13 5 17 -6 4 -18 -4 -27 -18z"/>
<path d="M1276 1513 c-9 -10 -7 -93 3 -93 12 0 21 26 21 60 0 29 -12 45 -24
33z"/>
<path d="M526 1501 c-4 -5 -2 -12 3 -15 5 -4 12 -2 15 3 4 5 2 12 -3 15 -5 4
-12 2 -15 -3z"/>
<path d="M790 1500 c0 -5 5 -10 10 -10 6 0 10 5 10 10 0 6 -4 10 -10 10 -5 0
-10 -4 -10 -10z"/>
<path d="M782 1469 c2 -6 8 -10 13 -10 5 0 11 4 13 10 2 6 -4 11 -13 11 -9 0
-15 -5 -13 -11z"/>
<path d="M820 1460 c0 -5 5 -10 10 -10 6 0 10 5 10 10 0 6 -4 10 -10 10 -5 0
-10 -4 -10 -10z"/>
<path d="M1155 1439 c-10 -15 3 -25 16 -12 7 7 7 13 1 17 -6 3 -14 1 -17 -5z"/>
<path d="M432 1098 c-13 -50 1 -77 18 -34 12 33 13 76 1 76 -5 0 -13 -19 -19
-42z"/>
<path d="M1062 1119 c2 -6 8 -10 13 -10 5 0 11 4 13 10 2 6 -4 11 -13 11 -9 0
-15 -5 -13 -11z"/>
<path d="M1276 1122 c-13 -12 -37 -75 -31 -80 8 -8 29 18 43 50 11 26 3 45
-12 30z"/>
<path d="M1010 1090 c0 -5 5 -10 10 -10 6 0 10 5 10 10 0 6 -4 10 -10 10 -5 0
-10 -4 -10 -10z"/>
<path d="M829 1078 c0 -2 -2 -14 -3 -26 -2 -13 -9 -28 -17 -32 -7 -5 -10 -12
-7 -16 11 -10 41 26 44 52 1 13 -2 24 -7 24 -5 0 -9 -1 -10 -2z"/>
<path d="M995 1059 c-10 -15 3 -25 16 -12 7 7 7 13 1 17 -6 3 -14 1 -17 -5z"/>
<path d="M896 1041 c-4 -5 -2 -12 3 -15 5 -4 12 -2 15 3 4 5 2 12 -3 15 -5 4
-12 2 -15 -3z"/>
<path d="M1115 1039 c-10 -15 3 -25 16 -12 7 7 7 13 1 17 -6 3 -14 1 -17 -5z"/>
<path d="M966 1012 c-3 -6 -1 -14 5 -17 15 -10 25 3 12 16 -7 7 -13 7 -17 1z"/>
<path d="M839 1006 c-4 -17 -7 -26 -9 -28 -5 -7 -7 -84 -2 -92 3 -5 11 -1 18
8 7 10 16 17 20 16 5 -1 10 3 12 9 2 6 -3 11 -11 11 -11 0 -14 9 -11 35 1 19
-1 37 -7 40 -5 4 -10 4 -10 1z"/>
<path d="M1110 1000 c0 -5 4 -10 9 -10 6 0 13 5 16 10 3 6 -1 10 -9 10 -9 0
-16 -4 -16 -10z"/>
<path d="M1055 979 c-10 -15 3 -25 16 -12 7 7 7 13 1 17 -6 3 -14 1 -17 -5z"/>
<path d="M782 929 c2 -6 8 -10 13 -10 5 0 11 4 13 10 2 6 -4 11 -13 11 -9 0
-15 -5 -13 -11z"/>
<path d="M942 918 c5 -13 37 -20 52 -11 5 4 1 10 -10 14 -29 11 -46 10 -42 -3z"/>
<path d="M1035 911 c-6 -11 9 -23 19 -14 9 9 7 23 -3 23 -6 0 -12 -4 -16 -9z"/>
<path d="M700 890 c0 -5 5 -10 10 -10 6 0 10 5 10 10 0 6 -4 10 -10 10 -5 0
-10 -4 -10 -10z"/>
<path d="M1082 879 c2 -6 8 -10 13 -10 5 0 11 4 13 10 2 6 -4 11 -13 11 -9 0
-15 -5 -13 -11z"/>
<path d="M985 861 c-6 -11 9 -23 19 -14 9 9 7 23 -3 23 -6 0 -12 -4 -16 -9z"/>
<path d="M635 819 c-10 -15 3 -25 16 -12 7 7 7 13 1 17 -6 3 -14 1 -17 -5z"/>
<path d="M685 819 c-10 -15 3 -25 16 -12 7 7 7 13 1 17 -6 3 -14 1 -17 -5z"/>
<path d="M815 811 c-7 -12 12 -24 25 -16 11 7 4 25 -10 25 -5 0 -11 -4 -15 -9z"/>
<path d="M595 799 c-10 -15 3 -25 16 -12 7 7 7 13 1 17 -6 3 -14 1 -17 -5z"/>
<path d="M915 771 c-7 -12 12 -24 25 -16 11 7 4 25 -10 25 -5 0 -11 -4 -15 -9z"/>
<path d="M735 759 c-10 -15 3 -25 16 -12 7 7 7 13 1 17 -6 3 -14 1 -17 -5z"/>
<path d="M456 753 c-11 -11 -6 -23 9 -23 8 0 15 4 15 9 0 13 -16 22 -24 14z"/>
<path d="M592 739 c2 -6 8 -10 13 -10 5 0 11 4 13 10 2 6 -4 11 -13 11 -9 0
-15 -5 -13 -11z"/>
<path d="M865 741 c-6 -11 9 -23 19 -14 9 9 7 23 -3 23 -6 0 -12 -4 -16 -9z"/>
<path d="M405 729 c-10 -15 3 -25 16 -12 7 7 7 13 1 17 -6 3 -14 1 -17 -5z"/>
<path d="M790 725 c0 -9 5 -15 11 -13 6 2 11 8 11 13 0 5 -5 11 -11 13 -6 2
-11 -4 -11 -13z"/>
<path d="M445 711 c-6 -11 9 -23 19 -14 9 9 7 23 -3 23 -6 0 -12 -4 -16 -9z"/>
<path d="M565 709 c-10 -15 3 -25 16 -12 7 7 7 13 1 17 -6 3 -14 1 -17 -5z"/>
<path d="M986 688 c-34 -44 -20 -60 16 -18 15 19 28 38 28 42 0 17 -20 6 -44
-24z"/>
<path d="M376 692 c-3 -6 -1 -14 5 -17 15 -10 25 3 12 16 -7 7 -13 7 -17 1z"/>
<path d="M775 671 c-7 -12 12 -24 25 -16 11 7 4 25 -10 25 -5 0 -11 -4 -15 -9z"/>
<path d="M234 637 c-9 -24 0 -80 14 -85 8 -2 12 10 12 42 0 45 -15 70 -26 43z"/>
<path d="M756 631 c-4 -5 -2 -12 3 -15 5 -4 12 -2 15 3 4 5 2 12 -3 15 -5 4
-12 2 -15 -3z"/>
<path d="M715 571 c-7 -12 12 -24 25 -16 11 7 4 25 -10 25 -5 0 -11 -4 -15 -9z"/>
<path d="M665 499 c-10 -15 3 -25 16 -12 7 7 7 13 1 17 -6 3 -14 1 -17 -5z"/>
<path d="M655 451 c-7 -12 12 -24 25 -16 11 7 4 25 -10 25 -5 0 -11 -4 -15 -9z"/>
<path d="M625 329 c-10 -15 3 -25 16 -12 7 7 7 13 1 17 -6 3 -14 1 -17 -5z"/>
<path d="M643 306 c-41 -15 -50 -24 -31 -31 21 -8 91 22 83 35 -7 12 -9 11
-52 -4z"/>
</g>
</svg>
